<?xml version="1.0" encoding="UTF-8" standalone="no"?>
<!-- Created with Inkscape (http://www.inkscape.org/) -->

<svg
   xmlns:dc="http://purl.org/dc/elements/1.1/"
   xmlns:cc="http://creativecommons.org/ns#"
   xmlns:rdf="http://www.w3.org/1999/02/22-rdf-syntax-ns#"
   xmlns:svg="http://www.w3.org/2000/svg"
   xmlns="http://www.w3.org/2000/svg"
   xmlns:sodipodi="http://sodipodi.sourceforge.net/DTD/sodipodi-0.dtd"
   xmlns:inkscape="http://www.inkscape.org/namespaces/inkscape"
   width="18.21372mm"
   height="11.314649mm"
   viewBox="0 0 18.21372 11.314648"
   version="1.1"
   id="svg4921"
   inkscape:version="0.92.4 (5da689c313, 2019-01-14)"
   sodipodi:docname="JDMsmall.svg"
   inkscape:export-filename="C:\Users\Dice\Dropbox\TrueCrypt\Business\jdmeg\img\JDMsmall.png"
   inkscape:export-xdpi="96"
   inkscape:export-ydpi="96">
  <defs
     id="defs4915" />
  <sodipodi:namedview
     id="base"
     pagecolor="#ffffff"
     bordercolor="#666666"
     borderopacity="1.0"
     inkscape:pageopacity="0.0"
     inkscape:pageshadow="2"
     inkscape:zoom="7.9195959"
     inkscape:cx="41.648452"
     inkscape:cy="18.010716"
     inkscape:document-units="mm"
     inkscape:current-layer="g4890"
     showgrid="false"
     fit-margin-top="0.3"
     fit-margin-bottom="0.3"
     fit-margin-right="0.3"
     fit-margin-left="0.3"
     inkscape:window-width="1127"
     inkscape:window-height="654"
     inkscape:window-x="230"
     inkscape:window-y="0"
     inkscape:window-maximized="0"
     showguides="true"
     inkscape:guide-bbox="true">
    <sodipodi:guide
       position="18.237351,4.9136902"
       orientation="1,0"
       id="guide5522"
       inkscape:locked="false" />
  </sodipodi:namedview>
  <metadata
     id="metadata4918">
    <rdf:RDF>
      <cc:Work
         rdf:about="">
        <dc:format>image/svg+xml</dc:format>
        <dc:type
           rdf:resource="http://purl.org/dc/dcmitype/StillImage" />
        <dc:title></dc:title>
      </cc:Work>
    </rdf:RDF>
  </metadata>
  <g
     inkscape:label="Layer 1"
     inkscape:groupmode="layer"
     id="layer1"
     transform="translate(-85.926307,-155.56778)">
    <g
       transform="matrix(0.73101124,0,0,0.73101124,73.073835,110.94335)"
       id="g4890"
       inkscape:export-xdpi="96"
       inkscape:export-ydpi="96">
      <path
         style="fill:#aa0000;fill-opacity:1;stroke:none;stroke-width:0.18514889;stroke-miterlimit:4;stroke-dasharray:none;stroke-dashoffset:0;stroke-opacity:1"
         d="M 1.1347656,1.1347656 V 32.753906 H 68.928572 V 1.1347656 Z M 7.2578125,6.1835938 H 18.439453 V 22.205078 c 0,0.994987 -0.181152,1.927629 -0.541015,2.800781 -0.359866,0.863 -0.894071,1.594336 -1.603516,2.19336 -0.750573,0.639635 -1.655818,1.136834 -2.714844,1.492187 -1.059027,0.3452 -2.368806,0.517578 -3.9316405,0.517578 -1.0590268,0 -2.0565429,-0.03987 -2.9921875,-0.121093 C 5.720605,29.01682 4.8969449,28.909719 4.1875,28.767578 v -4.599609 h 0.5566406 c 0.4935269,0.182753 1.0063612,0.357084 1.5410156,0.519531 0.5346542,0.152294 1.2179547,0.228516 2.0507813,0.228516 1.0795901,0 1.9085935,-0.143453 2.4843745,-0.427735 0.586066,-0.284282 1.001284,-0.679853 1.248047,-1.1875 0.236482,-0.497494 0.371499,-1.040036 0.402344,-1.628906 0.03085,-0.599023 0.04492,-1.361239 0.04492,-2.285156 v -9.03125 H 7.2578125 Z M 20.134766,6.3300781 h 8.328125 c 1.871289,0 3.486551,0.157915 4.84375,0.4726563 1.357199,0.304588 2.498465,0.7419829 3.423828,1.3105468 1.583399,0.9543762 2.827623,2.2427188 3.732422,3.8671878 0.10064,0.177542 0.193621,0.360381 0.283203,0.544922 V 6.6699219 H 47.625 l 5.166016,11.3769531 5.15039,-11.3769531 h 6.878906 V 29.347656 H 58.929688 V 14.164062 l -4.257813,9.851563 h -4.085937 l -4.257813,-9.851563 v 15.183594 h -5.582031 v -6.6875 c -0.117007,0.241464 -0.241108,0.479907 -0.376953,0.712891 -0.976772,1.665081 -2.21031,2.944431 -3.701172,3.837891 -1.120718,0.670093 -2.348912,1.136414 -3.685547,1.40039 -1.336635,0.263976 -2.919838,0.396484 -4.75,0.396484 h -8.097656 z m 5.923828,4.2343749 v 14.193359 h 1.496094 c 1.408608,2e-6 2.441573,-0.05981 3.099609,-0.18164 0.658036,-0.131988 1.300544,-0.366125 1.927734,-0.701172 1.07959,-0.609176 1.871191,-1.422206 2.375,-2.4375 0.503809,-1.025446 0.75586,-2.288381 0.75586,-3.791016 0,-1.492481 -0.278767,-2.76636 -0.833985,-3.822265 C 34.33397,12.75816 33.466127,11.925195 32.273438,11.326172 31.66681,11.031737 31.043722,10.833951 30.40625,10.732422 29.77906,10.620739 28.829632,10.564453 27.554688,10.564453 Z"
         transform="matrix(0.36194154,0,0,0.36194154,17.581771,61.044793)"
         id="rect991"
         inkscape:connector-curvature="0"
         sodipodi:nodetypes="cccccccscccscccccscccsccccsccccccccccccccccccccssccccccccscccsc" />
      <rect
         style="fill:#aa0000;fill-opacity:1;stroke:none;stroke-width:0.02555557;stroke-miterlimit:4;stroke-dasharray:none;stroke-dashoffset:0;stroke-opacity:1"
         id="rect1285"
         width="24.537724"
         height="1.6643658"
         x="17.992161"
         y="74.448112"
         ry="0" />
      <g
         aria-label="J"
         transform="matrix(0.26794182,0,0,0.26458333,10.442333,54.350803)"
         style="font-style:normal;font-weight:normal;font-size:16px;line-height:125%;font-family:sans-serif;letter-spacing:0px;word-spacing:0px;fill:#f9f9f9;fill-opacity:1;stroke:none;stroke-width:1px;stroke-linecap:butt;stroke-linejoin:miter;stroke-opacity:1"
         id="flowRoot937" />
      <g
         aria-label="D"
         transform="matrix(0.26794182,0,0,0.26458333,15.38821,54.404288)"
         style="font-style:normal;font-weight:normal;font-size:16px;line-height:125%;font-family:sans-serif;letter-spacing:0px;word-spacing:0px;fill:#f9f9f9;fill-opacity:1;stroke:none;stroke-width:1px;stroke-linecap:butt;stroke-linejoin:miter;stroke-opacity:1"
         id="flowRoot953" />
      <g
         aria-label="M"
         transform="matrix(0.26794182,0,0,0.26458333,22.847874,54.527192)"
         style="font-style:normal;font-weight:normal;font-size:16px;line-height:125%;font-family:sans-serif;letter-spacing:0px;word-spacing:0px;fill:#f9f9f9;fill-opacity:1;stroke:none;stroke-width:1px;stroke-linecap:butt;stroke-linejoin:miter;stroke-opacity:1"
         id="flowRoot961" />
    </g>
  </g>
  <g
     inkscape:groupmode="layer"
     id="layer2"
     inkscape:label="Layer 2"
     style="display:none" />
</svg>
